<?xml version="1.0" encoding="UTF-8"?>
<svg id="Layer_1" xmlns="http://www.w3.org/2000/svg" version="1.1" viewBox="0 0 80 80">
  <!-- Generator: Adobe Illustrator 29.6.0, SVG Export Plug-In . SVG Version: 2.1.1 Build 207)  -->
  <defs>
    <style>
      .st0 {
        fill: none;
        stroke: #ccb073;
        stroke-width: 1.4px;
      }

      .st1 {
        fill: #ccb073;
      }
    </style>
  </defs>
  <circle class="st0" cx="40" cy="40" r="39.3"/>
  <g>
    <path class="st1" d="M35.4,56.8h2.1l6.4-6c0,2.1-.5,4.1-1.2,6h1.3c.5-1.7.9-3.5,1-5.1.8-7.8-1.5-15-5.6-21.6l.5.5,1.9,2.3h3.1c.4.3.5.8.3,1s-.3.1-.4.1h-1.9c2.1,3,3.6,6.2,4.2,9.8s.8,7.2,0,10.5-.4,1.7-.6,2.4h3.3s.3.1.4.3c.3.4,0,.6-.3.9h-19.9c-.4-.3-.5-.5-.3-.9.3-.4.3-.3.3-.3h3.9v-21.4h-.8s-.3-.1-.3-.3c-.1-.3-.1-.5,0-.8s.3-.1.4-.1h.8v-11.8s.1-.3.3-.3c.3-.1.5,0,.6.3v3.9c0,.1.4.3.5.5v30.3-.3Z"/>
    <path class="st1" d="M37.6,48.7l5.9-5.9c.4,1.9.6,3.9.6,5.9h-6.5Z"/>
    <polygon class="st1" points="43.1 50 36.7 56 36.7 50 43.1 50"/>
    <polygon class="st1" points="40.4 34.1 41.2 36 36.7 40.2 36.7 34.1 40.4 34.1"/>
    <polygon class="st1" points="42.2 42.3 36.7 47.8 36.7 42.3 42.2 42.3"/>
    <path class="st1" d="M43,41h-5.4l4.1-3.9c.5,1.3,1,2.6,1.3,3.9Z"/>
    <path class="st1" d="M39.6,32.9h-3v-4.7c.5.8,1.2,1.5,1.5,2.3s1,1.5,1.4,2.4Z"/>
  </g>
</svg>