<?xml version="1.0" encoding="UTF-8"?>
<svg id="Layer_1" xmlns="http://www.w3.org/2000/svg" version="1.1" viewBox="0 0 1686.1 667.6">
  <!-- Generator: Adobe Illustrator 29.1.0, SVG Export Plug-In . SVG Version: 2.1.0 Build 142)  -->
  <defs>
    <style>
      .st0 {
        fill: #fff;
      }
    </style>
  </defs>
  <path class="st0" d="M673.8,64.3c5.4-5.1,9.4-10.8,12-17,4.1-9.8,3.7-17.4-1-22.8-4.8-5.4-13.8-8.1-27.1-8.1h-45l-4.1,9.8h31c15.8,0,20.4,7.9,14.9,20.9-3.2,7.5-5.9,14.5-12.5,17.6-6,2.8-12.2,3.7-23.3,3.7h-14.3l10.7-25.4h-13.5l-15.2,36.1h40.8c11.4,0,20.5-1.1,27.1-3.2,7.3-2.4,13.8-6.2,19.6-11.5M966.9,16.3h-16.7l-64.2,60,25.1-60h-27.5l-33.2,26-17.1,14h-.8l8-20.5-9.8-19.6h-27.6l-25.1,60.1-14.5-60.1h-30.3l-66.9,62.6h16.7l17.1-16.4h42.2l3.3,16.4h44.8l16.2-38.7c.8-1.9,1.6-4.2,2.3-6.7,0,2,.6,4.2,1.6,6.4l14.2,32.3h2.4l40.7-32.2c1.5-1.2,3.8-3.4,6.9-6.6-1.6,2.9-2.7,5.1-3.3,6.7l-16.2,38.7h60.8l16.9-16.5h43.8l3.5,16.5h15.4l-15-62.7h-13.8v.3ZM708.9,54l26.7-25.5,4.8,25.5h-31.5ZM941.8,53.9l27.4-26.6,5.7,26.6h-33.1ZM1099.5,16.9l.2-.6h-45c-13.3,0-24.6,2.7-33.9,8.1-9.3,5.4-16,13-20.1,22.8-2.6,6.2-3.3,11.9-2.2,17,1.3,5.4,4.6,9.2,9.9,11.5,4.9,2.1,13,3.2,24.5,3.2h40.7l4.1-10h-22.9c-11.1,0-18.4-1.4-22.1-4.3-4-3.1-3.6-10.2-.4-17.7,5.4-13,16.9-21.1,32.7-21.1h17.8l-4.1,9.8h13.5l7.9-18.8h-.6Z"/>
  <path class="st0" d="M131,267.2c0-45.8-51.1-45.1-76.4-45.1H10.8v1.1c12.3,1.5,19.6,11.4,19.6,21.6v138.4h24.2v-72.4c5.3,0,11.4,0,18.1-.2l51.3,72.6h27.3l-53.7-74.6c17.8-4.6,33.4-15.6,33.4-41.4M92.5,297.3c-3.5,2.2-7.7,3.5-11.9,4.2-2.9.4-5.7.7-8.6.7h-17.4v-72.4h17.4c4.8,0,31.9,2.4,33,37.4,0,3.7-.2,7.7-.9,11.2-.7,2.9-1.5,5.7-2.9,8.4-.9,2.2-2.4,4.4-4,6.2-1.5,1.8-3.1,3.1-4.8,4.4M226.4,222.1h41.6v161.1h-22v-138.6c0-9.5-5.9-17.6-19.6-21.3v-1.1h0ZM432.6,346.6l-48.2-111.3c-3.5-7.9-11.5-13.2-20-13.2h-21.6v1.1l4.8,1.3c5.7,1.5,10.6,5.5,13,11l65.4,151,72-164.4h-10.8l-54.6,124.5h0ZM572.3,222.1h121.1v8.4h-77.2v63.8h64.5v9.9h-64.5v70.6h77.2v8.4h-101.5v-138.6c0-9.5-6.2-17.6-19.6-21.3v-1.1h0ZM1080.9,290.1c-20.2-10.4-39.8-20.7-39.8-37s14.5-24.9,28.2-24.9c27.7,0,36.5,18.3,39.8,30.4h7.9c-4.4-23.1-17.2-39.4-48-39.4s-46.9,7-46.9,42,28.4,41.6,45.1,50.2c26.4,13.7,40.3,22.9,40.3,39.8s-6.2,26-31.9,26-39.6-6.6-44.5-36.8h-7.3c4.6,33,24,46,54.1,46s50.4-27.7,50.4-44.5-9.2-32.8-47.5-51.9M1203.3,222.1h41.6v161.1h-22v-138.6c0-9.5-5.9-17.6-19.6-21.3v-1.1h0ZM1390.5,222.1h-70.9v1.1c12.3,1.3,19.6,11.4,19.6,21.3v138.6h51.3c2,0,88.9,3.7,88.9-80.5s-86.9-80.3-88.9-80.5M1390.5,374.8h-27.1v-144.8h27.1c10.6,0,61.8,0,62.1,72.6.4,72-53.7,72.2-62.1,72.2M1598.1,230.4v63.8h64.5v9.9h-64.5v70.6h77.3v8.4h-101.5v-138.6c0-9.5-6.2-17.6-19.6-21.3v-1.1h121.1v8.4h-77.3ZM813.8,378.9c-26.6-9.7-55.2-13.3-89.5,12.3,38.6-20.5,64.9-4.9,94.6,10.7,50.9,26.8,106.6,59,173.6-27.3-79,72.3-125.8,23.8-178.7,4.3M833.5,430.7c-52.4,24-67-38.6-115.5-16.4,47.3-35,81,10,115.5,16.4M873.8,308.3c16.6-5.1,30.4-16.4,30.4-40.8,0-46.1-51.4-45.5-76.9-45.5h-44.1v1.1c12.4,1.5,19.7,11.5,19.7,21.7v112.9c3.7,1,7.3,2.2,10.9,3.5,4.5,1.7,9,3.5,13.5,5.5v-55.4c5.3,0,11.5,0,18.2-.2l8.3-.7c-2.7.8-4.4,1-4.4,1,1.3,0,2.6.3,3.6,1.5l20.2,28.1c14.8,20.7,35,42.2,62.4,42.2s45-11.5,57-30.7c-22.8,21.6-68.5,37.2-118.7-44.5M870.3,293.5c-1.6,1.8-3.1,3.1-4.9,4.4-3.5,2.2-7.8,3.5-12,4.2-2.9.4-5.8.7-8.7.7h-17.5v-73h17.5c4.9,0,32.2,2.4,33.3,37.7,0,3.8-.2,7.8-.9,11.3-.7,2.9-1.5,5.8-2.9,8.4-.9,2.2-2.4,4.4-4,6.2M915.4,326.8l4.2-3.2c27.2-22.2,64-14,72.7,21.6-17-24-38.3-30.1-62.8-16.6,7.7,7.8,18.3,12.8,29.3,13.8-6.8,2.1-14.4,2.1-21.3-.2-8.8-2.6-16.2-8.2-22.1-15.5"/>
  <polygon class="st0" points="627.9 578.9 602.3 636.8 576.6 578.9 565.1 578.9 596.6 649.2 607.8 649.2 639.3 578.9 627.9 578.9"/>
  <rect class="st0" x="699.8" y="578.9" width="10.4" height="70.3"/>
  <polygon class="st0" points="779 578.9 779 649.2 839.6 649.2 839.6 638.6 789.4 638.6 789.4 618.8 831 618.8 831 608.2 789.4 608.2 789.4 589.4 838.8 589.4 838.8 578.9 779 578.9"/>
  <polygon class="st0" points="987.7 578.9 970.8 635.1 952.8 578.9 942.6 578.9 924.5 635.1 907.7 578.9 896.6 578.9 918.9 649.2 929.6 649.2 947.6 592.4 965.5 649.2 976.3 649.2 998.6 578.9 987.7 578.9"/>
  <path class="st0" d="M1121.2,628.4c0,13.4-11.4,22.9-32.1,22.9s-26.9-4.8-36.3-14.3l6.5-8.5c8.3,8.5,18,12.4,30.3,12.4s21-4.1,21-11.5-7.7-9.1-23-10.7c-16.8-1.6-32.6-5.9-32.6-20.3s14-21.7,31.5-21.7,24.4,4.5,31.7,11.7l-6.6,8.2c-6.3-6.3-14.9-9.3-25-9.5-9.7,0-21.1,2.6-21.1,10.5s10.2,8.7,23.5,9.9c19,1.7,32.2,6.1,32.2,20.8"/>
</svg>