<?xml version="1.0" encoding="UTF-8"?>
<svg id="Layer_1" xmlns="http://www.w3.org/2000/svg" version="1.1" viewBox="0 0 80 80">
  <!-- Generator: Adobe Illustrator 29.6.0, SVG Export Plug-In . SVG Version: 2.1.1 Build 207)  -->
  <defs>
    <style>
      .st0 {
        fill: none;
        stroke: #ccb073;
        stroke-width: 1.4px;
      }

      .st1 {
        fill: #ccb073;
      }
    </style>
  </defs>
  <circle class="st0" cx="40" cy="40" r="39.3"/>
  <path class="st1" d="M36.9,52.7h-7.8c-.5,0-.8-.3-1.1-.5s-.4-.7-.4-1.1l1.9-15.5c0-.7.6-1.3,1.4-1.3h3.4c.1,0,.2,0,.2-.2v-1.4c0-3,2.5-5.5,5.5-5.5s5.5,2.5,5.5,5.5v1.4c0,.1,0,.2.2.2h3.5c.7,0,1.3.5,1.4,1.3l1.7,15.5c0,.4,0,.8-.3,1.1-.3.3-.6.5-1,.5h-14.1ZM44.5,40.8c.6,0,1,.5,1,1v9.2c0,.1,0,.2.2.2h5c0,0,.1,0,.2,0,0,0,0-.1,0-.2l-1.6-15.1c0-.1-.1-.2-.2-.2h-18c-.1,0-.2,0-.2.2l-1.7,15c0,0,0,.1,0,.2,0,0,0,0,.2,0h4.9c.1,0,.2,0,.2-.2v-9.2c0-.6.5-1,1-1h9ZM41.1,46.2s0,0,0,0c.1.1.2.3.2.4,0,0,0,.1,0,.2,0,0,0,.2,0,.3,0,0,0,.2-.1.2,0,0-.1,0-.2.1,0,0-.1,0-.1,0-.1,0-.2,0-.2.2v3.3c0,.1,0,.2.2.2h2.9c.1,0,.2,0,.2-.2v-8.5c0-.1,0-.2-.2-.2h-2.9c-.1,0-.2,0-.2.2v3.4c0,.1,0,.2.2.2,0,0,.1,0,.1,0h0ZM36.2,42.3c-.1,0-.2,0-.2.2v8.5c0,.1,0,.2.2.2h2.9c.1,0,.2,0,.2-.2v-3.3c0-.1,0-.2-.2-.2s-.1,0-.2,0c0,0,0,0,0,0,0,0,0,0,0,0-.1-.1-.2-.3-.2-.4,0,0,0-.1,0-.2,0-.1,0-.2,0-.3,0,0,0-.2.1-.2,0,0,.1,0,.2-.1,0,0,0,0,.1,0,.1,0,.2,0,.2-.2v-3.4c0-.1,0-.2-.2-.2h-2.9ZM40,28.7c-2.2,0-4.1,1.8-4.1,4.1v1.4c0,.1,0,.2.2.2h7.7c.1,0,.2,0,.2-.2v-1.4c0-2.2-1.8-4.1-4.1-4.1Z"/>
</svg>