<?xml version="1.0" encoding="UTF-8"?>
<svg id="Layer_1" xmlns="http://www.w3.org/2000/svg" version="1.1" viewBox="0 0 80 80">
  <!-- Generator: Adobe Illustrator 29.6.0, SVG Export Plug-In . SVG Version: 2.1.1 Build 207)  -->
  <defs>
    <style>
      .st0 {
        fill: none;
        stroke: #ccb073;
        stroke-width: 1.4px;
      }

      .st1 {
        fill: #ccb073;
      }
    </style>
  </defs>
  <circle class="st0" cx="40" cy="40" r="39.3"/>
  <g>
    <path class="st1" d="M40.6,33.2l2.9-2c.6-.3,1.1.5.7,1l-3.6,2.5v1.1l1.3-.5c2.4-.8,4.8-.4,6.9,1.1s1.1.7.8,1.2-.6.4-.9.2-.7-.5-1-.8c-2.3-1.4-4.9-1.2-7,.2v1.8c.7-.4,1.4-.8,2.1-1,2.5-.8,4.8-.1,6.9,1.5s.9.7,1,1c.2.6-.4,1-1,.6s-1-.9-1.7-1.3c-2.5-1.4-5.1-1-7.3.7v1.6c1.6-.8,3.3-1.1,5.1-.6s2.4,1,2.9,1.6,0,1.1-.5,1-.8-.6-1-.7c-2-1.3-4.5-1.3-6.5,0v1.4c.2,0,.4-.1.7-.2,1.6-.3,3.2.2,4.5,1.1s.5.4.6.6c.1.6-.4.9-.9.6-1.2-.8-2-1.4-3.6-1.2s-.9.2-1.2.4v1.7h-1.1v-1.8c-1.4-.7-3-.3-4.2.5s-.8.8-1.3.4.3-1.1.7-1.4c1.2-.8,2.7-1.2,4.2-.9s.4.1.7.2v-1.4c-.5-.4-1.2-.7-1.8-.8-1.9-.5-3.4-.1-5,1s-.5.5-.7.5c-.6,0-.9-.6-.5-1s1.4-1,1.8-1.2c2-1,4.2-.8,6.2.2v-1.6c-1.5-1.1-3.3-1.8-5.2-1.5s-2.4.9-3.4,1.7-.7.8-1.2.4,0-.9.4-1.2c2.4-2.1,5.3-2.8,8.4-1.5s.8.5,1,.5,0,0,.1,0v-1.8c-2.3-1.5-4.8-1.6-7.1-.1s-1,.8-1.2.8c-.7.1-1-.6-.5-1s1.8-1.2,2.6-1.5c2.1-.7,4.2-.5,6.2.5v-1.1l-3.5-2.5c-.5-.5,0-1.2.6-1l2.9,2v-2.6s.1-.2.2-.3c.2-.2.6-.2.8,0s.2.2.2.3v2.6Z"/>
    <path class="st1" d="M30.7,29.7c4.7-4.5,11.9-5,17.2-1.2s7.3,12.5,3.2,18.6c-.2.3-.8,1.1-1,1.2-.5.3-1.1,0-1-.6s.6-.9.8-1.2c6.1-8.6-.8-20.3-11.2-19.2-9.3.9-14.1,11.7-8.6,19.3s.7.8.7,1c.2.6-.5,1.1-1,.7s-1.1-1.4-1.4-1.8c-3.4-5.5-2.4-12.4,2.2-16.8Z"/>
    <path class="st1" d="M39.1,48.4h1.7v4.9s-.1.3-.2.3c-.4.5-1.2.5-1.5,0s-.1-.3-.1-.3v-4.8h0Z"/>
    <path class="st1" d="M36.8,50.4c-.1.7-.6,1.2-1.3,1.5s-.5.2-.6.2h-3.9c.1-.6.6-1.2,1.2-1.5s.5-.2.6-.2h3.9Z"/>
    <path class="st1" d="M45.1,52c-.6,0-1.3-.4-1.6-.9s-.3-.4-.3-.7h4c.7,0,1.5.8,1.7,1.5s0,.1,0,.2h-3.7Z"/>
  </g>
</svg>